<?xml version="1.0" encoding="UTF-8" standalone="no"?>
<!DOCTYPE svg PUBLIC "-//W3C//DTD SVG 1.1//EN" "http://www.w3.org/Graphics/SVG/1.1/DTD/svg11.dtd">
<!-- Created with Vectornator (http://vectornator.io/) -->
<svg height="100%" stroke-miterlimit="10" style="fill-rule:nonzero;clip-rule:evenodd;stroke-linecap:round;stroke-linejoin:round;" version="1.1" viewBox="0 0 448 512" width="100%" xml:space="preserve" xmlns="http://www.w3.org/2000/svg" xmlns:vectornator="http://vectornator.io" xmlns:xlink="http://www.w3.org/1999/xlink">
<defs/>
<g id="Untitled" vectornator:layerName="Untitled">
<path d="M224 96C135.6 96 64 167.6 64 256C64 344.4 135.6 416 224 416C301.4 416 366 361 380.8 288L256 288C238.3 288 224 273.7 224 256C224 238.3 238.3 224 256 224L416 224C433.7 224 448 238.3 448 256C448 379.7 347.7 480 224 480C100.3 480 0 379.7 0 256C0 132.3 100.3 32 224 32C281.4 32 333.7 53.6 373.3 89C386.5 100.8 387.6 121 375.8 134.2C364 147.4 343.8 148.5 330.6 136.7C302.3 111.4 265 96 224 96Z" fill="#ffffff" fill-rule="nonzero" opacity="1" stroke="none"/>
</g>
</svg>
